<svg xmlns="http://www.w3.org/2000/svg" viewBox="0 0 355.75 51.63"><defs><style>.cls-1{fill:#F0F0F0;}</style></defs><g id="Layer_2" data-name="Layer 2"><g id="Layer_1-2" data-name="Layer 1"><polygon class="cls-1" points="5.19 27.93 13.55 15.21 29.91 20.11 44.45 6.3 60.81 20.48 75.35 15.75 84.25 28.66 75.53 19.02 64.44 34.47 44.72 9.21 25.91 34.47 13.73 18.66 5.19 27.93"/><path class="cls-1" d="M2.47,22.84A6.47,6.47,0,0,0,.68,25.51a2.79,2.79,0,0,0,.74,2.76,14.07,14.07,0,0,0,5.52,3.05,76.87,76.87,0,0,0,12.73,2.93c4.33.65,8.68,1.19,13,1.53s8.75.62,13.13.67,8.76,0,13.14-.2,8.75-.55,13.08-1.08c2.17-.28,4.32-.65,6.44-1.09a32.14,32.14,0,0,0,6.17-1.87,11.52,11.52,0,0,0,2.71-1.56A4.08,4.08,0,0,0,89,28.22a4.62,4.62,0,0,0-.71-2.95,12.79,12.79,0,0,0-2-2.61A13.23,13.23,0,0,1,88.62,25a5.25,5.25,0,0,1,1.16,3.27,4.93,4.93,0,0,1-1.61,3.22,13.25,13.25,0,0,1-2.84,2,46.16,46.16,0,0,1-12.9,3.95,143.25,143.25,0,0,1-26.63,2,147,147,0,0,1-26.55-2.91A66,66,0,0,1,6.39,32.68a22.78,22.78,0,0,1-3-1.6A9.35,9.35,0,0,1,.77,28.79a3.44,3.44,0,0,1-.51-3.43A6.66,6.66,0,0,1,2.47,22.84Z"/><path class="cls-1" d="M119.32,0Q126,0,129.46,2.54A8.46,8.46,0,0,1,133,9.83a13.51,13.51,0,0,1-.5,4,8.44,8.44,0,0,1-1.39,2.8A7.85,7.85,0,0,1,129,18.5a15.68,15.68,0,0,1-2.67,1.28,4.26,4.26,0,0,1,2,1.55,23,23,0,0,1,2.06,3.13c.7,1.23,1.41,2.61,2.13,4.12l2.16,4.59q1.08,2.32,2.19,4.51a42.34,42.34,0,0,0,2.22,3.9,13.62,13.62,0,0,0,2.25,2.74,3.39,3.39,0,0,0,2.26,1,2.38,2.38,0,0,0,1-.21,3.23,3.23,0,0,0,.74-.42l.52,1c-.33.19-.73.41-1.2.64a12.9,12.9,0,0,1-1.66.68,16.92,16.92,0,0,1-2.13.54,15.11,15.11,0,0,1-2.63.22,7,7,0,0,1-4.27-1.41,11.6,11.6,0,0,1-3.27-4c-.93-1.76-1.84-3.6-2.73-5.54s-1.79-3.86-2.67-5.8-1.78-3.82-2.66-5.67-1.78-3.57-2.68-5.19l.2-1.08a3.26,3.26,0,0,0,2.5-.19,4.34,4.34,0,0,0,1.75-1.88,11.16,11.16,0,0,0,1-3.2,24.14,24.14,0,0,0,.33-4.12,13.3,13.3,0,0,0-.32-3,9.24,9.24,0,0,0-.89-2.43,4.86,4.86,0,0,0-1.38-1.63,3,3,0,0,0-1.8-.6,3,3,0,0,0-1.29.25,2.3,2.3,0,0,0-.79.64,2.19,2.19,0,0,0-.4.81,3.58,3.58,0,0,0-.11.83V36a3.89,3.89,0,0,1-1,3,5.42,5.42,0,0,1-6,0,3.92,3.92,0,0,1-1-3V4.43c0-1-.61-1.45-1.85-1.45a9,9,0,0,0-2.72.43,9.55,9.55,0,0,0-2.49,1.19,6.75,6.75,0,0,0-1.82,1.79,4,4,0,0,0-.71,2.26A3.51,3.51,0,0,0,101.3,10a2,2,0,0,0,.48.75,1.17,1.17,0,0,0,.55.32,2.39,2.39,0,0,0,.4.07,2,2,0,0,0,1-.23,6.24,6.24,0,0,0,.71-.47L105,10a1,1,0,0,1,.65-.22,1.63,1.63,0,0,1,.62.14,1.79,1.79,0,0,1,.61.47,2.52,2.52,0,0,1,.48.83,3.54,3.54,0,0,1,.19,1.25,4.11,4.11,0,0,1-.37,1.82,4.19,4.19,0,0,1-1,1.28,4,4,0,0,1-1.37.76,4.79,4.79,0,0,1-1.52.25,4.94,4.94,0,0,1-2.11-.43,4.65,4.65,0,0,1-1.6-1.2,5.26,5.26,0,0,1-1-1.8,6.77,6.77,0,0,1-.34-2.18A9.41,9.41,0,0,1,99,7.05a8.45,8.45,0,0,1,2.14-2.88,11.91,11.91,0,0,1,3.31-2A22.56,22.56,0,0,1,108.76.87a39.17,39.17,0,0,1,5-.67C115.55.07,117.4,0,119.32,0Z"/><path class="cls-1" d="M151.23,27.32a8.32,8.32,0,0,0,.23,1.83,11.37,11.37,0,0,0,.67,2,10.68,10.68,0,0,0,1.09,1.91,8.51,8.51,0,0,0,1.49,1.62,6.85,6.85,0,0,0,1.86,1.14,5.89,5.89,0,0,0,2.25.42A5.64,5.64,0,0,0,160.4,36a6.2,6.2,0,0,0,1.37-.58,9,9,0,0,0,1.22-.86c.39-.32.78-.67,1.17-1l.61.63A16.12,16.12,0,0,1,163.33,36a11.36,11.36,0,0,1-2.12,1.84,12,12,0,0,1-2.9,1.42,11.66,11.66,0,0,1-3.79.57,10.8,10.8,0,0,1-4.13-.83,10.33,10.33,0,0,1-3.58-2.49,12.47,12.47,0,0,1-2.5-4.14,16.29,16.29,0,0,1-.94-5.8,16.53,16.53,0,0,1,.56-4.41,14.69,14.69,0,0,1,1.53-3.61,13.31,13.31,0,0,1,2.24-2.82,14.39,14.39,0,0,1,2.7-2,12.86,12.86,0,0,1,2.89-1.21,10.77,10.77,0,0,1,2.84-.41,10.54,10.54,0,0,1,3.15.42,6.59,6.59,0,0,1,2.23,1.14,4.51,4.51,0,0,1,1.77,3.61,4,4,0,0,1-.65,2.23,6.42,6.42,0,0,1-1.76,1.72Zm4.9-5.36a4.28,4.28,0,0,0,.53-.4,1.47,1.47,0,0,0,.33-.48,2.67,2.67,0,0,0,.18-.68,7.36,7.36,0,0,0,.06-1,8.76,8.76,0,0,0-.13-1.46,6.37,6.37,0,0,0-.45-1.52,4,4,0,0,0-.81-1.19,1.62,1.62,0,0,0-1.17-.47,2.13,2.13,0,0,0-1.5.57,4.21,4.21,0,0,0-1,1.46,10,10,0,0,0-.63,2,23,23,0,0,0-.35,2.31c-.09.77-.13,1.52-.15,2.23s0,1.31,0,1.8Z"/><path class="cls-1" d="M187,26.29a39.17,39.17,0,0,0-.28-5.31,11.68,11.68,0,0,0-.74-3,2.9,2.9,0,0,0-1-1.37,2.2,2.2,0,0,0-1.14-.33,2.09,2.09,0,0,0-1.26.41,4.7,4.7,0,0,0-.95.94,6.91,6.91,0,0,0-.68,1.05,6.61,6.61,0,0,1-.48.79V37.05a4.1,4.1,0,0,1-.1.83,2,2,0,0,1-.47.92,3,3,0,0,1-1.13.74,5.54,5.54,0,0,1-2,.3,5.1,5.1,0,0,1-2-.33,3.17,3.17,0,0,1-1.14-.78,2,2,0,0,1-.48-.92,3.68,3.68,0,0,1-.1-.76V16.69a2.6,2.6,0,0,0-.33-1.33,1.18,1.18,0,0,0-1.11-.57,1.43,1.43,0,0,0-.71.16,4.18,4.18,0,0,0-.63.45l-.52-.66q.57-.49,1.26-1a9.93,9.93,0,0,1,1.5-.86,11.36,11.36,0,0,1,1.73-.6,7.8,7.8,0,0,1,2-.24,4.5,4.5,0,0,1,2.46.57A3.6,3.6,0,0,1,179.86,14a4.32,4.32,0,0,1,.5,1.65,14.14,14.14,0,0,1,.09,1.44,14.39,14.39,0,0,1,2.05-2.51,10.63,10.63,0,0,1,1-.92,8.27,8.27,0,0,1,1.22-.8,6.52,6.52,0,0,1,1.36-.57,5.29,5.29,0,0,1,1.48-.21,6.08,6.08,0,0,1,2.94.69A5.35,5.35,0,0,1,192.7,15,13.89,13.89,0,0,1,194,19.29a38.87,38.87,0,0,1,.47,6.58,30.07,30.07,0,0,1-.64,6.64,19.62,19.62,0,0,1-1.66,4.8,12.19,12.19,0,0,1-2.32,3.23,11.87,11.87,0,0,1-2.61,2,9.8,9.8,0,0,1-2.52,1,10.9,10.9,0,0,1-2.09.31l-.27-1.09a4.44,4.44,0,0,0,1.36-.58A3.92,3.92,0,0,0,184.89,41a8.09,8.09,0,0,0,.9-1.93,19.61,19.61,0,0,0,.68-2.94c.18-1.18.32-2.57.41-4.18S187,28.43,187,26.29Z"/><path class="cls-1" d="M212.06,14.32V33.8a3,3,0,0,0,.49,1.94,1.72,1.72,0,0,0,1.34.54,1.87,1.87,0,0,0,1.17-.39,4.4,4.4,0,0,0,.88-.9,5.42,5.42,0,0,0,.76-1.29l.76.37c-.25.56-.54,1.17-.87,1.84a7.39,7.39,0,0,1-1.33,1.86,6.91,6.91,0,0,1-2.09,1.44,7.62,7.62,0,0,1-3.16.58,6.49,6.49,0,0,1-2.06-.34,4.77,4.77,0,0,1-1.76-1.09A5.4,5.4,0,0,1,205,36.52a6.88,6.88,0,0,1-.46-2.66V14.32h-2.74v-1.9a7.09,7.09,0,0,0,1.91-.38,9.28,9.28,0,0,0,2.5-1.28,10.43,10.43,0,0,0,2.38-2.4,9.55,9.55,0,0,0,1.56-3.72h1.95v7.78h4c1.3,0,2-.24,2-.71a.35.35,0,0,0-.24-.36,5.79,5.79,0,0,1-.55-.24,1.76,1.76,0,0,1-.55-.4,1.3,1.3,0,0,1-.24-.88,1.59,1.59,0,0,1,.42-1.16,1.53,1.53,0,0,1,1.11-.42,1.47,1.47,0,0,1,.77.2,1.64,1.64,0,0,1,.55.53,2.32,2.32,0,0,1,.33.75,3,3,0,0,1,.11.84,3.9,3.9,0,0,1-.91,2.73,3.77,3.77,0,0,1-2.94,1Z"/><path class="cls-1" d="M232.7,14.21a5.36,5.36,0,0,0-1.54.21,5.09,5.09,0,0,0-1.22.53,3,3,0,0,0-.81.7,1.24,1.24,0,0,0-.29.72.57.57,0,0,0,.38.57l.84.4a2.81,2.81,0,0,1,.84.63,1.8,1.8,0,0,1,.38,1.25,2.45,2.45,0,0,1-.21,1,2.67,2.67,0,0,1-.56.81,2.48,2.48,0,0,1-.83.56,2.61,2.61,0,0,1-1,.2,2.76,2.76,0,0,1-2.21-1,4,4,0,0,1-.84-2.66,4.76,4.76,0,0,1,.78-2.75,6.17,6.17,0,0,1,2-1.89,9.75,9.75,0,0,1,2.84-1.09,14.56,14.56,0,0,1,6.81.09,8.93,8.93,0,0,1,3.07,1.42,7.28,7.28,0,0,1,2.12,2.48,7.71,7.71,0,0,1,.79,3.64v14.9a5.11,5.11,0,0,0,0,.52,1.47,1.47,0,0,0,.12.53,1,1,0,0,0,.29.4.91.91,0,0,0,.56.15,1.16,1.16,0,0,0,.82-.35,6.43,6.43,0,0,0,.67-.73l.61.56c-.24.37-.54.77-.88,1.21a7.27,7.27,0,0,1-1.24,1.24,7.08,7.08,0,0,1-1.71,1,5.94,5.94,0,0,1-2.22.39,4.13,4.13,0,0,1-2.73-1,4.91,4.91,0,0,1-1.57-3,11.17,11.17,0,0,1-1.62,1.9,8.3,8.3,0,0,1-1.72,1.23,6.91,6.91,0,0,1-1.77.69,7.75,7.75,0,0,1-1.79.21,6.73,6.73,0,0,1-2.27-.39,5.53,5.53,0,0,1-2-1.26A6.24,6.24,0,0,1,224.31,36a9.37,9.37,0,0,1-.52-3.34,7.78,7.78,0,0,1,.88-3.93,8.09,8.09,0,0,1,2.3-2.57,14.86,14.86,0,0,1,3.25-1.78q1.82-.73,3.72-1.56A4,4,0,0,0,236,21a5.18,5.18,0,0,0,.65-2.47,4.45,4.45,0,0,0-1.06-3.12A3.68,3.68,0,0,0,232.7,14.21Zm3.88,11.55a1.27,1.27,0,0,0-.4-1,1.44,1.44,0,0,0-1-.34,3.32,3.32,0,0,0-1.62.42,4,4,0,0,0-1.35,1.24,6.45,6.45,0,0,0-.93,2,10.15,10.15,0,0,0-.34,2.79,12.66,12.66,0,0,0,.21,2.53,4.8,4.8,0,0,0,.56,1.59,2,2,0,0,0,.81.83,2.12,2.12,0,0,0,1,.24,2.21,2.21,0,0,0,1.2-.36,3.49,3.49,0,0,0,1-.91,4.41,4.41,0,0,0,.66-1.23,4.19,4.19,0,0,0,.25-1.38Z"/><path class="cls-1" d="M262.67,43.24a5.22,5.22,0,0,0,1.93-.38,4.45,4.45,0,0,0,1.7-1.27,6.73,6.73,0,0,0,1.2-2.3,11.31,11.31,0,0,0,.47-3.48,9.79,9.79,0,0,0-1-4.3,25.32,25.32,0,0,0-2.54-4.1c-1-1.35-2.12-2.68-3.3-4s-2.28-2.68-3.29-4.06a23.78,23.78,0,0,1-2.54-4.27,11,11,0,0,1-1-4.6,11.15,11.15,0,0,1,.81-4.34,10,10,0,0,1,2.23-3.3A9.79,9.79,0,0,1,260.59.74a10.76,10.76,0,0,1,4-.74,14.55,14.55,0,0,1,4,.51,10,10,0,0,1,3,1.4A6,6,0,0,1,273.48,4a5.3,5.3,0,0,1,.64,2.55,5.4,5.4,0,0,1-.17,1.3,4.26,4.26,0,0,1-.54,1.23,3,3,0,0,1-.93.92,2.29,2.29,0,0,1-1.31.37,1.52,1.52,0,0,1-1.33-.59,4.07,4.07,0,0,1-.64-1.46,17.94,17.94,0,0,1-.35-1.92,9.71,9.71,0,0,0-.47-1.91A3.67,3.67,0,0,0,267.43,3a2.59,2.59,0,0,0-1.85-.59,3,3,0,0,0-1.31.31,3.49,3.49,0,0,0-1.17,1,5,5,0,0,0-.84,1.65,8,8,0,0,0-.32,2.38,8.05,8.05,0,0,0,.61,3.08,16,16,0,0,0,1.61,3,32.26,32.26,0,0,0,2.28,2.92l2.61,3c.89,1,1.76,2,2.62,3.06A27.21,27.21,0,0,1,274,26a18.71,18.71,0,0,1,1.61,3.53,12.55,12.55,0,0,1,.61,3.88,12.77,12.77,0,0,1-1.06,5.31,11.45,11.45,0,0,1-2.88,3.93A12.64,12.64,0,0,1,268,45.06a15.88,15.88,0,0,1-5.2.85,13.16,13.16,0,0,1-4.4-.68,10.26,10.26,0,0,1-3.24-1.78,7.5,7.5,0,0,1-2-2.51,6.88,6.88,0,0,1-.67-2.92,5.72,5.72,0,0,1,.18-1.36,5.79,5.79,0,0,1,.54-1.33,3.47,3.47,0,0,1,.89-1,2,2,0,0,1,1.25-.41,1.75,1.75,0,0,1,1.18.39,2.84,2.84,0,0,1,.72,1.06,8.07,8.07,0,0,1,.44,1.5c.11.56.24,1.14.37,1.72a16.66,16.66,0,0,0,.48,1.71,5.41,5.41,0,0,0,.81,1.5,3.75,3.75,0,0,0,1.32,1.06A4.6,4.6,0,0,0,262.67,43.24Z"/><path class="cls-1" d="M293.29,14.32V33.8a3,3,0,0,0,.48,1.94,1.74,1.74,0,0,0,1.35.54,1.89,1.89,0,0,0,1.17-.39,5,5,0,0,0,.88-.9,5.75,5.75,0,0,0,.75-1.29l.76.37c-.25.56-.53,1.17-.87,1.84a7.15,7.15,0,0,1-1.33,1.86,7,7,0,0,1-2.08,1.44,7.66,7.66,0,0,1-3.16.58,6.51,6.51,0,0,1-2.07-.34,4.65,4.65,0,0,1-1.75-1.09,5.28,5.28,0,0,1-1.24-1.84,7.08,7.08,0,0,1-.46-2.66V14.32H283v-1.9a7,7,0,0,0,1.9-.38,9.28,9.28,0,0,0,2.5-1.28,10.23,10.23,0,0,0,2.38-2.4,9.55,9.55,0,0,0,1.56-3.72h2v7.78h4c1.3,0,2-.24,2-.71a.36.36,0,0,0-.25-.36l-.55-.24a1.89,1.89,0,0,1-.55-.4,1.3,1.3,0,0,1-.24-.88,1.55,1.55,0,0,1,.43-1.16,1.64,1.64,0,0,1,1.88-.22,1.61,1.61,0,0,1,.54.53,2.32,2.32,0,0,1,.33.75,3,3,0,0,1,.11.84A3.9,3.9,0,0,1,300,13.3a3.77,3.77,0,0,1-2.94,1Z"/><path class="cls-1" d="M313.92,14.21a5.36,5.36,0,0,0-1.54.21,5.09,5.09,0,0,0-1.22.53,3,3,0,0,0-.81.7,1.24,1.24,0,0,0-.29.72.58.58,0,0,0,.38.57l.84.4a2.81,2.81,0,0,1,.84.63,1.75,1.75,0,0,1,.38,1.25,2.45,2.45,0,0,1-.21,1,2.51,2.51,0,0,1-.56.81,2.39,2.39,0,0,1-.83.56,2.54,2.54,0,0,1-1,.2,2.73,2.73,0,0,1-2.2-1,3.93,3.93,0,0,1-.85-2.66,4.76,4.76,0,0,1,.78-2.75,6.27,6.27,0,0,1,2-1.89,9.71,9.71,0,0,1,2.85-1.09,14.52,14.52,0,0,1,6.8.09,8.93,8.93,0,0,1,3.07,1.42,7.28,7.28,0,0,1,2.12,2.48,7.71,7.71,0,0,1,.79,3.64v14.9a5.11,5.11,0,0,0,0,.52,1.47,1.47,0,0,0,.12.53,1,1,0,0,0,.29.4.91.91,0,0,0,.56.15,1.15,1.15,0,0,0,.82-.35,6.43,6.43,0,0,0,.67-.73l.61.56c-.24.37-.53.77-.88,1.21a7.27,7.27,0,0,1-1.24,1.24,7.08,7.08,0,0,1-1.71,1,5.94,5.94,0,0,1-2.22.39,4.15,4.15,0,0,1-2.73-1,4.86,4.86,0,0,1-1.56-3,11.2,11.2,0,0,1-1.63,1.9,8.3,8.3,0,0,1-1.72,1.23,6.91,6.91,0,0,1-1.77.69,7.75,7.75,0,0,1-1.79.21,6.73,6.73,0,0,1-2.27-.39,5.53,5.53,0,0,1-2-1.26A6.24,6.24,0,0,1,305.53,36a9.37,9.37,0,0,1-.52-3.34,7.78,7.78,0,0,1,.88-3.93,8.09,8.09,0,0,1,2.3-2.57,15.09,15.09,0,0,1,3.25-1.78q1.81-.73,3.72-1.56a4,4,0,0,0,2.06-1.8,5.18,5.18,0,0,0,.65-2.47,4.45,4.45,0,0,0-1.06-3.12A3.68,3.68,0,0,0,313.92,14.21Zm3.88,11.55a1.26,1.26,0,0,0-.39-1,1.46,1.46,0,0,0-1-.34,3.38,3.38,0,0,0-1.63.42,4,4,0,0,0-1.35,1.24,6.45,6.45,0,0,0-.93,2,10.15,10.15,0,0,0-.34,2.79,12.66,12.66,0,0,0,.21,2.53,5,5,0,0,0,.56,1.59,2,2,0,0,0,1.79,1.07,2.21,2.21,0,0,0,1.2-.36,3.49,3.49,0,0,0,1-.91,4.41,4.41,0,0,0,.66-1.23,4.19,4.19,0,0,0,.25-1.38Z"/><path class="cls-1" d="M355.75,16.19A49.36,49.36,0,0,1,352.5,34a39.75,39.75,0,0,1-3.63,7.2,29.61,29.61,0,0,1-4.56,5.57,19.94,19.94,0,0,1-5.21,3.61,12.81,12.81,0,0,1-5.55,1.3,6,6,0,0,1-3.32-.78,2.41,2.41,0,0,1-1.17-2.1,3.35,3.35,0,0,1,.53-1.82,2.21,2.21,0,0,1,.59-.59,1.3,1.3,0,0,1,.73-.22.87.87,0,0,1,.77.5l.65,1.09a5.13,5.13,0,0,0,.83,1.1,1.79,1.79,0,0,0,1.34.5,7.11,7.11,0,0,0,2.29-.41,11.4,11.4,0,0,0,2.41-1.18,18.48,18.48,0,0,0,2.41-1.85A29.09,29.09,0,0,0,344,43.43c-.45-1.78-1-3.72-1.57-5.82s-1.22-4.21-1.88-6.34-1.34-4.18-2-6.16-1.36-3.73-2-5.26a24.32,24.32,0,0,0-1.91-3.67c-.61-.93-1.15-1.39-1.62-1.39a1.33,1.33,0,0,0-.72.16,6.64,6.64,0,0,0-.6.45l-.48-.66c.32-.3.66-.61,1-.92a6.44,6.44,0,0,1,1.27-.87,7.43,7.43,0,0,1,1.71-.65,9.37,9.37,0,0,1,2.34-.25,5.56,5.56,0,0,1,2.77.72,6.57,6.57,0,0,1,2.33,2.68c.5,1,1,2.13,1.57,3.48s1.1,2.87,1.65,4.54,1.11,3.47,1.67,5.42,1.13,4,1.7,6.1a43.29,43.29,0,0,0,2.44-7.26,33.42,33.42,0,0,0,.93-7.9,15.9,15.9,0,0,0-.17-2.48A16.33,16.33,0,0,0,352,15.6c-.15-.49-.28-.9-.39-1.24a2.86,2.86,0,0,1-.18-.91.9.9,0,0,1,.3-.68,2.17,2.17,0,0,1,.71-.43,3.47,3.47,0,0,1,.84-.22,4.13,4.13,0,0,1,.72-.07,1.58,1.58,0,0,1,1,.29,1.63,1.63,0,0,1,.52.83,4.81,4.81,0,0,1,.2,1.31C355.75,15,355.75,15.56,355.75,16.19Z"/><rect class="cls-1" x="12.14" y="26.06" width="3.02" height="4.26"/><rect class="cls-1" x="42.31" y="22.66" width="5.1" height="6.83"/><rect class="cls-1" x="75.07" y="26.06" width="2.81" height="4.26"/></g></g></svg>