<svg xmlns="http://www.w3.org/2000/svg" viewBox="0 0 361.84 65.65">
    <defs>
        <style>
            .cls-1,.cls-2 {
                fill:#F0F0F0;    
            }
            .cls-2 {
                font-size:54px;
                font-family:BerkshireSwash-Regular, Berkshire Swash;
                letter-spacing:0.08em;
            }
            .cls-3 {
                letter-spacing:0.09em;
            }
        </style>
    </defs>
    <g id="Layer_2" data-name="Layer 2">
        <g id="Layer_1-2" data-name="Layer 1">
            <polygon class="cls-1" points="5.19 40.01 13.55 27.28 29.91 32.19 44.45 18.38 60.81 32.55 75.35 27.83 84.25 40.73 75.53 31.1 64.44 46.55 44.72 21.29 25.91 46.55 13.73 30.74 5.19 40.01"/>
            <path class="cls-1" d="M2.47,34.92A6.47,6.47,0,0,0,.68,37.59a2.8,2.8,0,0,0,.74,2.76,14.19,14.19,0,0,0,5.52,3,76.87,76.87,0,0,0,12.73,2.93c4.33.65,8.68,1.18,13,1.52s8.75.63,13.13.67,8.76,0,13.14-.19,8.75-.55,13.08-1.09c2.17-.27,4.32-.64,6.44-1.09a32.12,32.12,0,0,0,6.17-1.86,12.26,12.26,0,0,0,2.71-1.56A4.08,4.08,0,0,0,89,40.29a4.64,4.64,0,0,0-.71-2.95,13.36,13.36,0,0,0-2-2.61,13.63,13.63,0,0,1,2.37,2.37,5.25,5.25,0,0,1,1.16,3.27,5,5,0,0,1-1.61,3.22,13.25,13.25,0,0,1-2.84,2,46.83,46.83,0,0,1-12.9,4,142.39,142.39,0,0,1-26.63,2,147.88,147.88,0,0,1-26.55-2.9A66,66,0,0,1,6.39,44.76a25.42,25.42,0,0,1-3-1.6A9.51,9.51,0,0,1,.77,40.87a3.45,3.45,0,0,1-.51-3.43A6.59,6.59,0,0,1,2.47,34.92Z"/>
            <text class="cls-2" transform="translate(98.29 51.49) scale(0.93 1)">
                R
                <tspan class="cls-3" x="47.1" y="0">
                    entaStay
                </tspan>
            </text><rect class="cls-1" x="12.14" y="38.13" width="3.02" height="4.26"/><rect class="cls-1" x="42.31" y="34.73" width="5.1" height="6.83"/><rect class="cls-1" x="75.07" y="38.13" width="2.81" height="4.26"/>
        </g>
    </g>
</svg>