<svg xmlns="http://www.w3.org/2000/svg" viewBox="0 0 89.78 33.16"><defs><style>.cls-1{fill:#231f20;}</style></defs><g id="Layer_2" data-name="Layer 2"><g id="Layer_1-2" data-name="Layer 1"><polygon class="cls-1" points="5.19 21.63 13.55 8.91 29.91 13.81 44.45 0 60.81 14.18 75.35 9.45 84.25 22.36 75.53 12.72 64.44 28.17 44.72 2.91 25.91 28.17 13.73 12.36 5.19 21.63"/><path class="cls-1" d="M2.47,16.54A6.47,6.47,0,0,0,.68,19.21,2.79,2.79,0,0,0,1.42,22,14.07,14.07,0,0,0,6.94,25,76.87,76.87,0,0,0,19.67,28c4.33.65,8.68,1.19,13,1.53s8.75.62,13.13.67,8.76,0,13.14-.2,8.75-.55,13.08-1.08c2.17-.28,4.32-.65,6.44-1.09a32.87,32.87,0,0,0,6.17-1.87,11.52,11.52,0,0,0,2.71-1.56A4.08,4.08,0,0,0,89,21.92a4.66,4.66,0,0,0-.71-3,13,13,0,0,0-2-2.6,13.23,13.23,0,0,1,2.37,2.36A5.25,5.25,0,0,1,89.78,22a5,5,0,0,1-1.61,3.22,13.25,13.25,0,0,1-2.84,2,46.16,46.16,0,0,1-12.9,3.95,143.25,143.25,0,0,1-26.63,2,147,147,0,0,1-26.55-2.91A66,66,0,0,1,6.39,26.38a22.78,22.78,0,0,1-3-1.6A9.35,9.35,0,0,1,.77,22.49a3.44,3.44,0,0,1-.51-3.43A6.59,6.59,0,0,1,2.47,16.54Z"/><rect class="cls-1" x="12.14" y="19.75" width="3.02" height="4.26"/><rect class="cls-1" x="42.31" y="16.36" width="5.1" height="6.83"/><rect class="cls-1" x="75.07" y="19.75" width="2.81" height="4.26"/></g></g></svg>